<?xml version="1.0" encoding="utf-8"?>
<!-- Generator: Adobe Illustrator 21.0.2, SVG Export Plug-In . SVG Version: 6.00 Build 0)  -->
<svg version="1.1" id="Layer_1" xmlns="http://www.w3.org/2000/svg" xmlns:xlink="http://www.w3.org/1999/xlink" x="0px" y="0px"
	 viewBox="170 0 625 412" style="enable-background:new 0 0 1000 535;">
<style type="text/css">
	.st2{fill-rule:evenodd;clip-rule:evenodd;fill:#FFFFFF;}
	.st3{fill-rule:evenodd;clip-rule:evenodd;fill:#FFFFFF;}
</style>
<g>
	<g>
		<g>
			<path class="st2" d="M294.7,215c-2-19.2-16.4-26.2-18.3-51.9c-2.8,13.5-4.3,27.6-4.3,41.9c0,28.2,5.7,55.1,16.1,79.6
				C284.8,253.5,297.4,240.3,294.7,215z"/>
			<path class="st2" d="M375.9,27c-24.1,13.7-45.2,32.1-62,54.1c38.6-32.6,77.5-28.4,84.4-34.4c8.8-7.7-29.5-10.8-29.5-10.8
				S370.3,32,375.9,27z"/>
			<path class="st2" d="M538.6,388.7c-40.6-20.8-11.1-50.8,0.3-61.9c11.4-11.1,44.6-46.5,17.8-73.9c-26.8-27.4-30.8-57.6-16.4-85.6
				c14.4-28,42.7-21.9,58.6-9.2c15.9,12.8,39.1,34.8,50.9,27.8c18.4-11.2-0.5-34.5-0.5-34.5s-0.7,23.6-5.9,23.6
				c-5.3,0-6.3-25.1-9.8-27.4c-10-3.7-3.7,18.5-22,8.5c-18.3-10-11.7-33.8-3.4-44.1c8.3-10.3,22.2,5.1,26,8.4
				c3.7,3.3,11,7.1,19.2,7.1c5.8,0,18.4,29,25.3,46.1c-15.2-98-99.9-173-202.1-173c-17.5,0-34.5,2.2-50.8,6.4
				c6.7-1.2,14.2-2.2,22.6-2.8c69.5-5.6,92.9,12.5,90.7,21.5c-2.2,9-4.7,13.4-13.6,12.5c-8.8-0.9-17.9-4.4-23.4,2.7
				c-5.5,7.2-10.9,6.3-16.4,4c-5.5-2.3-9.3-0.5-12.7,4.6c-3.4,5.1-10.7,19.1-16.1,13.8c-5.4-5.3-4.4-2.9-2.7-8.1
				c1.7-5.3,8.9-10.8,5.6-11.3c-3.3-0.5-38.2-1.1-61.7,23.7c25.8,0,59.1,4.8,53.6,44.6c-5.5,39.8-38.3,59.3-73.7,89.4
				c-35.4,30.1-76.4,97.9-29.8,141.7c-8.9,0.9-17.4-0.1-25.1-3.2c37.5,42.7,92.4,69.6,153.7,69.6c28.3,0,55.3-5.8,79.9-16.2
				C550.2,393,544.1,391.5,538.6,388.7z M480.5,70.7c-5.9,10.6-16.2,10-19,8.3c-2.8-1.7-3.8-1.4,4.3-8.6
				C473.9,63.2,486.4,60.1,480.5,70.7z"/>
		</g>
		<path class="st3" d="M711.3,207.6c-12.4-1.9-24.5-1.8-30.2-1.6c0,0.2,0,0.4,0,0.6c0,11.5-1,22.8-2.8,33.8
			c5.6-0.5,18.4-1.1,32.9,2.5c65.1,18.7,60.2,97.7-13.3,97.7c-172.8,0-240.3-301.4-401.3-301.4c-68.5,0-123.2,47.6-123.2,99.1
			c0,46,29.7,98.3,95.9,109.2l7.4,1.2c-2.5-11.3-4-23-4.5-34.9l-2.9-0.4c-100.5-20-68.6-142.6,25-142.6
			c141.7,0,209.8,301.7,405.6,301.7c39.7,0,90.8-23.1,90.8-76.5C790.8,250.4,757.1,215.9,711.3,207.6z"/>
	</g>
</g>
</svg>
